<svg display="block" width="115" height="23" viewBox="0 0 115 23" fill="none"
    xmlns="http://www.w3.org/2000/svg">
    <path d="M18.7819 7.29875H22.6519L18.3919 21.9988H14.1919L11.8519 13.4487C11.7619 13.0588 11.6119 12.3387 11.5819 12.0387H11.4919C11.4619 12.3387 11.3419 13.0588 11.2519 13.4487L8.91188 21.9988H4.71187L0.421875 7.29875H4.29188L6.54188 16.6888C6.69188 17.4088 6.87188 18.0087 6.93188 18.4587H7.02188C7.08188 18.0087 7.26188 17.4088 7.44188 16.6888L9.84188 7.29875H13.2319L15.6619 16.6888C15.8419 17.4088 15.9919 18.0087 16.0819 18.4587H16.1719C16.2319 18.0087 16.3519 17.4688 16.5619 16.6888L18.7819 7.29875Z" fill="black"></path>
    <path d="M37.7934 14.7387V15.4888H27.2634C27.5334 17.8888 28.9434 19.2388 31.0434 19.2388C33.2334 19.2388 34.0434 18.0987 34.2834 17.1987H37.7334C37.2234 19.7787 35.1834 22.1488 30.8934 22.1488C26.3934 22.1488 23.6634 19.0288 23.6634 14.6788C23.6634 10.2387 26.7234 7.14875 30.9234 7.14875C35.2734 7.14875 37.7934 10.1487 37.7934 14.7387ZM30.9534 9.96875C29.1234 9.96875 27.7134 11.0787 27.3234 13.2387H34.3134C34.0134 10.9887 32.7834 9.96875 30.9534 9.96875Z" fill="black"></path>
    <path d="M52.7145 21.9988H48.6645L45.4845 16.7787L42.2745 21.9988H38.3145L43.3545 14.5287L38.3445 7.29875H42.3945L45.5145 12.1588L48.5445 7.29875H52.5345L47.6445 14.4388L52.7145 21.9988Z" fill="black"></path>
    <path d="M59.6173 18.9088L59.8573 21.8787C59.2873 22.0287 58.6573 22.1488 57.8473 22.1488C55.6573 22.1488 54.4873 20.7987 54.4873 18.4587V0.698749H58.1173V18.1588C58.1173 18.7288 58.4473 19.0588 58.8973 19.0588C59.1373 19.0588 59.2873 19.0288 59.6173 18.9088Z" fill="black"></path>
    <path d="M75.5067 14.7387V15.4888H64.9767C65.2467 17.8888 66.6567 19.2388 68.7567 19.2388C70.9467 19.2388 71.7567 18.0987 71.9967 17.1987H75.4467C74.9367 19.7787 72.8967 22.1488 68.6067 22.1488C64.1067 22.1488 61.3767 19.0288 61.3767 14.6788C61.3767 10.2387 64.4367 7.14875 68.6367 7.14875C72.9867 7.14875 75.5067 10.1487 75.5067 14.7387ZM68.6667 9.96875C66.8367 9.96875 65.4267 11.0787 65.0367 13.2387H72.0267C71.7267 10.9887 70.4967 9.96875 68.6667 9.96875Z" fill="black"></path>
    <path d="M85.6737 7.14875C86.0337 7.14875 86.3937 7.20875 86.5737 7.23875L86.5437 10.8387C86.3337 10.7487 86.0937 10.6888 85.5237 10.6888C83.7237 10.6888 82.1937 11.9188 81.9537 14.1388V21.9988H78.2937V7.29875H81.8037L81.8637 9.66875C82.5837 8.19875 83.7837 7.14875 85.6737 7.14875Z" fill="black"></path>
    <path d="M88.725 17.6187C90.165 17.6187 91.095 18.5488 91.095 19.8988C91.095 21.2488 90.165 22.1788 88.725 22.1788C87.315 22.1788 86.385 21.2488 86.385 19.8988C86.385 18.5488 87.315 17.6187 88.725 17.6187Z" fill="#3A3C47"></path>
    <path d="M107.902 18.9088L108.142 21.8787C107.572 22.0287 106.912 22.1488 106.162 22.1488C104.572 22.1488 103.402 21.3388 102.982 19.7488C102.502 20.6488 101.212 22.1488 98.062 22.1488C94.792 22.1488 93.082 20.5288 93.082 18.1588C93.082 14.6788 96.532 13.5387 100.552 13.5387H102.832V12.7887C102.832 11.0787 101.812 9.99875 99.772 9.99875C98.032 9.99875 96.952 10.8388 96.802 12.2788H93.442C93.682 8.97875 96.232 7.14875 99.982 7.14875C104.152 7.14875 106.402 9.33875 106.402 12.9987V18.1588C106.402 18.7288 106.702 19.0588 107.152 19.0588C107.392 19.0588 107.572 19.0288 107.902 18.9088ZM99.022 19.4188C101.422 19.4188 102.832 17.8887 102.832 16.6287V15.6687H100.372C97.972 15.6687 96.652 16.3888 96.652 17.7688C96.652 18.8188 97.402 19.4188 99.022 19.4188Z" fill="#3A3C47"></path>
    <path d="M114.495 2.52875C114.495 3.90875 113.445 4.86875 112.095 4.86875C110.745 4.86875 109.695 3.90875 109.695 2.52875C109.695 1.20875 110.745 0.21875 112.095 0.21875C113.445 0.21875 114.495 1.20875 114.495 2.52875ZM110.235 21.9988V7.29875H113.895V21.9988H110.235Z" fill="#3A3C47"></path>
</svg>